<svg id="visual" viewBox="0 0 960 440" width="960" height="440" xmlns="http://www.w3.org/2000/svg" xmlns:xlink="http://www.w3.org/1999/xlink" version="1.1"><path d="M0 306L22.8 297.8C45.7 289.7 91.3 273.3 137 276C182.7 278.7 228.3 300.3 274 311.8C319.7 323.3 365.3 324.7 411.2 318.7C457 312.7 503 299.3 548.8 290.2C594.7 281 640.3 276 686 274.7C731.7 273.3 777.3 275.7 823 278.7C868.7 281.7 914.3 285.3 937.2 287.2L960 289L960 441L937.2 441C914.3 441 868.7 441 823 441C777.3 441 731.7 441 686 441C640.3 441 594.7 441 548.8 441C503 441 457 441 411.2 441C365.3 441 319.7 441 274 441C228.3 441 182.7 441 137 441C91.3 441 45.7 441 22.8 441L0 441Z" fill="#1c77c4"></path><path d="M0 304L22.8 309.5C45.7 315 91.3 326 137 329.3C182.7 332.7 228.3 328.3 274 326C319.7 323.7 365.3 323.3 411.2 325C457 326.7 503 330.3 548.8 326C594.7 321.7 640.3 309.3 686 312.2C731.7 315 777.3 333 823 339.3C868.7 345.7 914.3 340.3 937.2 337.7L960 335L960 441L937.2 441C914.3 441 868.7 441 823 441C777.3 441 731.7 441 686 441C640.3 441 594.7 441 548.8 441C503 441 457 441 411.2 441C365.3 441 319.7 441 274 441C228.3 441 182.7 441 137 441C91.3 441 45.7 441 22.8 441L0 441Z" fill="#1b88d2"></path><path d="M0 375L22.8 370.2C45.7 365.3 91.3 355.7 137 347.3C182.7 339 228.3 332 274 330.2C319.7 328.3 365.3 331.7 411.2 332.8C457 334 503 333 548.8 337.2C594.7 341.3 640.3 350.7 686 355C731.7 359.3 777.3 358.7 823 356C868.7 353.3 914.3 348.7 937.2 346.3L960 344L960 441L937.2 441C914.3 441 868.7 441 823 441C777.3 441 731.7 441 686 441C640.3 441 594.7 441 548.8 441C503 441 457 441 411.2 441C365.3 441 319.7 441 274 441C228.3 441 182.7 441 137 441C91.3 441 45.7 441 22.8 441L0 441Z" fill="#1f9ae0"></path><path d="M0 384L22.8 380.5C45.7 377 91.3 370 137 370.2C182.7 370.3 228.3 377.7 274 380.8C319.7 384 365.3 383 411.2 378C457 373 503 364 548.8 364.2C594.7 364.3 640.3 373.7 686 378.3C731.7 383 777.3 383 823 379.8C868.7 376.7 914.3 370.3 937.2 367.2L960 364L960 441L937.2 441C914.3 441 868.7 441 823 441C777.3 441 731.7 441 686 441C640.3 441 594.7 441 548.8 441C503 441 457 441 411.2 441C365.3 441 319.7 441 274 441C228.3 441 182.7 441 137 441C91.3 441 45.7 441 22.8 441L0 441Z" fill="#29abec"></path><path d="M0 414L22.8 414.3C45.7 414.7 91.3 415.3 137 416.3C182.7 417.3 228.3 418.7 274 418.7C319.7 418.7 365.3 417.3 411.2 414.5C457 411.7 503 407.3 548.8 407.8C594.7 408.3 640.3 413.7 686 414.3C731.7 415 777.3 411 823 410.7C868.7 410.3 914.3 413.7 937.2 415.3L960 417L960 441L937.2 441C914.3 441 868.7 441 823 441C777.3 441 731.7 441 686 441C640.3 441 594.7 441 548.8 441C503 441 457 441 411.2 441C365.3 441 319.7 441 274 441C228.3 441 182.7 441 137 441C91.3 441 45.7 441 22.8 441L0 441Z" fill="#38bdf8"></path></svg>